<svg xmlns="http://www.w3.org/2000/svg" width="191.333" height="191.333" viewBox="0 0 191.333 191.333">
  <g id="Grupo_2" data-name="Grupo 2" transform="translate(-370 -62.667)">
    <path id="Caminho_1" data-name="Caminho 1" d="M121.358,0H45.217V33.633H134.9A45.268,45.268,0,0,1,180.122,78.85c0,20.562-14.52,38.467-34.131,43.459.08-1.4.124-2.8.124-4.221,0-40.387-32.69-73.245-72.871-73.245a73.246,73.246,0,1,0,62.417,111.008,69.945,69.945,0,0,0,55.671-68.126V69.975A70.2,70.2,0,0,0,121.358,0Zm-8.875,22.422H90.061V11.211h22.422ZM56.428,11.211H78.85V22.422H56.428ZM134.9,22.422H123.694V11.263A58.67,58.67,0,0,1,166.1,31.921,55.719,55.719,0,0,0,134.9,22.422Zm-61.66,157.7a62.034,62.034,0,1,1,0-124.068c34,0,61.66,27.828,61.66,62.034S107.244,180.122,73.245,180.122ZM142,142.352a72.866,72.866,0,0,0,2.355-8.248,56.365,56.365,0,0,0,21.347-8.343A59.357,59.357,0,0,1,142,142.352Z" transform="translate(370 62.667)"/>
    <path id="Caminho_4" data-name="Caminho 4" d="M77.816,271a16.816,16.816,0,1,0,16.816,16.816A16.836,16.836,0,0,0,77.816,271Zm0,22.422a5.605,5.605,0,1,1,5.605-5.605A5.612,5.612,0,0,1,77.816,293.422Z" transform="translate(331.477 -124.061)"/>
    <path id="Caminho_5" data-name="Caminho 5" d="M257.816,271a16.816,16.816,0,1,0,16.816,16.816A16.836,16.836,0,0,0,257.816,271Zm0,22.422a5.605,5.605,0,1,1,5.605-5.605A5.612,5.612,0,0,1,257.816,293.422Z" transform="translate(212.38 -141.061)"/>
    <g id="filled_outline" data-name="filled outline" transform="translate(425.993 170.385)">
      <path id="Caminho_7" data-name="Caminho 7" d="M76.316,262.582H43.823L40,232H80.138Z" transform="translate(-37.133 -206.197)" fill="#e82f3e"/>
      <path id="Caminho_8" data-name="Caminho 8" d="M365.38,347.114H353.911L352,328h15.291Z" transform="translate(-311.862 -290.729)" fill="#0296e5"/>
      <path id="Caminho_9" data-name="Caminho 9" d="M370.255,372.636l-.564,5.635L356.8,376l-.583-5.837Z" transform="translate(-315.577 -327.853)" fill="#0296e5"/>
      <path id="Caminho_10" data-name="Caminho 10" d="M361.2,267.823H344l.956-3.823h15.291Z" transform="translate(-304.817 -234.374)" fill="#eaeae8"/>
      <path id="Caminho_11" data-name="Caminho 11" d="M433.911,151.291H432v-9.557L434.867,136h1.911l-2.867,6.69Z" transform="translate(-382.305 -121.665)" fill="#0276b4"/>
      <g id="Grupo_1" data-name="Grupo 1" transform="translate(8.601 25.803)">
        <path id="Caminho_12" data-name="Caminho 12" d="M184,232h5.734v30.582H184Z" transform="translate(-172.532 -232)" fill="#cbcbcb"/>
        <path id="Caminho_13" data-name="Caminho 13" d="M94.69,262.582H89.911L88,232h5.734Z" transform="translate(-88 -232)" fill="#cbcbcb"/>
        <path id="Caminho_14" data-name="Caminho 14" d="M276.778,262.582H272L272.956,232h5.734Z" transform="translate(-250.019 -232)" fill="#cbcbcb"/>
      </g>
      <path id="Caminho_15" data-name="Caminho 15" d="M225.045,72.986a2.389,2.389,0,0,0-1.331-3.106,2.389,2.389,0,0,0-4.437-1.775,2.389,2.389,0,0,0-1.775,4.437c.025.01.05.017.075.026l0,0a2.389,2.389,0,0,0,4.437,1.775.011.011,0,0,1,0,0A2.388,2.388,0,0,0,225.045,72.986Z" transform="translate(-192.108 -60.558)" fill="#d18d28"/>
      <path id="Caminho_16" data-name="Caminho 16" d="M121.064,77.856a2.389,2.389,0,0,0-3.1-1.354,2.389,2.389,0,1,0-4.45,1.741,2.389,2.389,0,1,0,1.741,4.45c.025-.01.048-.022.072-.032a.013.013,0,0,0,0,0,2.389,2.389,0,0,0,4.45-1.741s0,0,0,0A2.387,2.387,0,0,0,121.064,77.856Z" transform="translate(-100.532 -67.937)" fill="#fbb540"/>
      <path id="Caminho_17" data-name="Caminho 17" d="M33.064,26.873a2.389,2.389,0,0,0-3.1-1.354,2.389,2.389,0,0,0-4.45,1.741,2.389,2.389,0,1,0,1.741,4.45c.025-.01.048-.022.072-.032a.012.012,0,0,0,0,0,2.389,2.389,0,0,0,4.45-1.741s0,0,0,0A2.388,2.388,0,0,0,33.064,26.873Z" transform="translate(-23.044 -23.044)" fill="#d18d28"/>
      <path id="Caminho_18" data-name="Caminho 18" d="M49.557,148.778a2.389,2.389,0,0,0-2.389-2.389,2.389,2.389,0,1,0-4.778,0,2.389,2.389,0,1,0,0,4.778c.027,0,.052,0,.079,0v0a2.389,2.389,0,1,0,4.778,0v0A2.388,2.388,0,0,0,49.557,148.778Z" transform="translate(-37.133 -128.71)" fill="#fbb540"/>
      <path id="Caminho_19" data-name="Caminho 19" d="M129.557,148.778a2.389,2.389,0,0,0-2.389-2.389,2.389,2.389,0,1,0-4.778,0,2.389,2.389,0,1,0,0,4.778c.027,0,.052,0,.079,0v0a2.389,2.389,0,1,0,4.778,0v0A2.388,2.388,0,0,0,129.557,148.778Z" transform="translate(-107.576 -128.71)" fill="#d18d28"/>
      <path id="Caminho_20" data-name="Caminho 20" d="M209.557,148.778a2.389,2.389,0,0,0-2.389-2.389,2.389,2.389,0,1,0-4.778,0,2.389,2.389,0,1,0,0,4.778c.027,0,.052,0,.079,0v0a2.389,2.389,0,1,0,4.778,0v0A2.388,2.388,0,0,0,209.557,148.778Z" transform="translate(-178.02 -128.71)" fill="#fbb540"/>
      <path id="Caminho_21" data-name="Caminho 21" d="M289.557,148.778a2.389,2.389,0,0,0-2.389-2.389,2.389,2.389,0,1,0-4.778,0,2.389,2.389,0,1,0,0,4.778c.027,0,.052,0,.079,0v0a2.389,2.389,0,0,0,4.778,0v0A2.388,2.388,0,0,0,289.557,148.778Z" transform="translate(-248.463 -128.71)" fill="#d18d28"/>
      <path id="Caminho_22" data-name="Caminho 22" d="M324.93,46.645a2.389,2.389,0,0,0-1.087-3.2,2.389,2.389,0,1,0-4.286-2.112,2.389,2.389,0,1,0-2.112,4.286c.024.012.048.02.073.031,0,0,0,0,0,0a2.389,2.389,0,0,0,4.286,2.112.008.008,0,0,1,0,0A2.387,2.387,0,0,0,324.93,46.645Z" transform="translate(-280.259 -37.133)" fill="#fbb540"/>
      <ellipse id="Elipse_1" data-name="Elipse 1" cx="7" cy="9" rx="7" ry="9" transform="translate(15.007 30.615)" fill="#eaeae8"/>
      <path id="Caminho_23" data-name="Caminho 23" d="M370.255,372.636l-.564,5.635L356.8,376l-.583-5.837Z" transform="translate(-315.577 -327.853)" fill="#0276b4"/>
      <path id="Caminho_24" data-name="Caminho 24" d="M336,296h19.114v3.823H336Z" transform="translate(-297.773 -262.552)" fill="#cbcbcb"/>
      <rect id="Retângulo_1" data-name="Retângulo 1" width="42" height="4" rx="2" transform="translate(4.007 21.615)" fill="#eaeae8"/>
      <path id="Caminho_25" data-name="Caminho 25" d="M432,248h1.911v1.911H432Z" transform="translate(-382.305 -220.286)" fill="#015078"/>
      <path id="Caminho_26" data-name="Caminho 26" d="M18.008,25.508a3.323,3.323,0,0,0,1.818.248,3.345,3.345,0,0,0,6.011-2.4A3.345,3.345,0,0,0,23.41,17.38a3.347,3.347,0,0,0-6.03,2.358,3.346,3.346,0,0,0,.628,5.77Zm.027-3.639a1.424,1.424,0,0,1,.791-.76.956.956,0,0,0,.542-1.238,1.433,1.433,0,1,1,2.67-1.045.956.956,0,0,0,1.238.542,1.432,1.432,0,1,1,1.087,2.65.956.956,0,0,0-.516,1.218l.009.023a1.434,1.434,0,1,1-2.669,1.048.956.956,0,0,0-1.275-.548l-.057.026a1.434,1.434,0,0,1-1.82-1.915Z" transform="translate(-16.003 -16.003)"/>
      <path id="Caminho_27" data-name="Caminho 27" d="M309.332,39.007a3.345,3.345,0,0,0,5.826,2.821A3.346,3.346,0,0,0,317.933,36a3.345,3.345,0,0,0-5.806-2.86,3.346,3.346,0,0,0-2.8,5.863Zm.838-3.218a1.433,1.433,0,0,1,1.919-.652.956.956,0,0,0,1.28-.435,1.434,1.434,0,0,1,2.572,1.267.956.956,0,0,0,.435,1.28,1.432,1.432,0,0,1-1.223,2.59.956.956,0,0,0-1.257.46l0,.006a1.434,1.434,0,0,1-2.573-1.266l.015-.029a.955.955,0,0,0-.469-1.282l-.058-.025A1.435,1.435,0,0,1,310.17,35.788Z" transform="translate(-273.215 -30.078)"/>
      <path id="Caminho_28" data-name="Caminho 28" d="M73.334,86.86c0-.011-.977-3.941-.977-3.941a.956.956,0,0,0-.927-.724H69.519V74.745l2.79-6.509A.956.956,0,0,0,71.43,66.9H67.607a.956.956,0,0,0-.855.528l-2.867,5.734a.955.955,0,0,0-.1.427v8.6H59.611l.255-2.043a2.867,2.867,0,0,0-.86-5.6h-1.1a3.34,3.34,0,0,0-2.357-4.192,3.345,3.345,0,0,0-6.473,0,3.345,3.345,0,0,0-1.542.9,3.345,3.345,0,0,0-1.542-.9,3.33,3.33,0,0,0-.524-1.1,3.306,3.306,0,0,0,.921-.859,3.346,3.346,0,0,0,2.316-6.019,3.347,3.347,0,0,0-6.012-2.4,3.345,3.345,0,0,0-2.332,6.06,3.356,3.356,0,0,0,.61,2.348,3.357,3.357,0,0,0-1.451,1.978,3.345,3.345,0,0,0-1.542.9,3.344,3.344,0,0,0-1.542-.9,3.337,3.337,0,0,0-.588-1.191,3.352,3.352,0,0,0,.5-2.2,3.345,3.345,0,0,0-2.427-5.974,3.347,3.347,0,0,0-6.03,2.359,3.346,3.346,0,0,0,2.446,6.016c.013.017.027.034.04.051a3.3,3.3,0,0,0-.41.94,3.342,3.342,0,0,0-1.541.9,3.345,3.345,0,0,0-1.542-.9,3.345,3.345,0,0,0-6.473,0,3.347,3.347,0,0,0-2.324,4.3,2.867,2.867,0,0,0-.078,5.493l3.735,29.877a.956.956,0,0,0,.948.836H55.183a.956.956,0,0,0,.948-.837l.539-4.313L57.1,110a.956.956,0,0,0,.951.861H69.519a.956.956,0,0,0,.951-.86l1.825-18.253h.091a.956.956,0,0,0,.956-.956S73.337,86.883,73.334,86.86Zm-1.9,2.981H56.139V87.929H71.43Zm-2.163,12.983-11.161-1.97-.386-3.861,11.92,2.1Zm1.895-16.806H56.407l.478-1.911h13.8ZM65.7,73.819l2.5-5h1.783l-2.3,5.358a.957.957,0,0,0-.077.376v7.645H65.7ZM49.927,72.16a.956.956,0,0,0,.956-.956,1.434,1.434,0,1,1,2.867,0,.956.956,0,0,0,.956.956,1.431,1.431,0,0,1,1.066,2.389H48.861a1.432,1.432,0,0,1,1.066-2.389Zm-8.976-9.4a1.434,1.434,0,0,1,1.864-.8.956.956,0,0,0,1.242-.532,1.434,1.434,0,0,1,2.662,1.065.956.956,0,0,0,.532,1.242,1.432,1.432,0,0,1-1.02,2.676.956.956,0,0,0-1.218.558h0A1.433,1.433,0,1,1,42.352,65.9l.011-.028a.956.956,0,0,0-.566-1.238l-.062-.021a1.435,1.435,0,0,1-.784-1.857Zm-.581,9.4a.956.956,0,0,0,.956-.956,1.434,1.434,0,1,1,2.867,0,.956.956,0,0,0,.956.956,1.435,1.435,0,0,1,1.434,1.434,1.419,1.419,0,0,1-.369.956H39.3A1.432,1.432,0,0,1,40.37,72.16ZM29.285,67.369a1.434,1.434,0,0,1,.052-2.648.956.956,0,0,0,.542-1.238,1.433,1.433,0,1,1,2.67-1.045.956.956,0,0,0,1.238.542,1.432,1.432,0,1,1,1.087,2.65.956.956,0,0,0-.521,1.2l.014.036A1.434,1.434,0,0,1,32,68.382a1.417,1.417,0,0,1-.3-.467l0-.007a.956.956,0,0,0-1.271-.538l-.058.026A1.424,1.424,0,0,1,29.285,67.369Zm1.529,4.791a.956.956,0,0,0,.956-.956,1.426,1.426,0,0,1,.162-.662,3.334,3.334,0,0,0,2.315-.046c.054-.021.106-.046.158-.07a1.431,1.431,0,0,1,.232.778.956.956,0,0,0,.956.956,1.435,1.435,0,0,1,1.434,1.434,1.419,1.419,0,0,1-.369.956H29.747a1.432,1.432,0,0,1,1.066-2.389Zm-9.557,0a.956.956,0,0,0,.956-.956,1.434,1.434,0,1,1,2.867,0,.956.956,0,0,0,.956.956,1.435,1.435,0,0,1,1.434,1.434,1.419,1.419,0,0,1-.369.956h-6.91a1.432,1.432,0,0,1,1.066-2.389Zm-2.389,4.3H59.006a.956.956,0,1,1,0,1.911H18.868a.956.956,0,1,1,0-1.911Zm28.7,32.493.378-12.108A9.523,9.523,0,0,0,48.113,91a.951.951,0,0,0,.021-.17l.33-10.546h3.79l-1.792,28.67Zm-20.157,0-1.792-28.67h3.79l.337,10.767a9.534,9.534,0,0,0,.206,5.869.962.962,0,0,0-.016.206l.37,11.828Zm13.437-28.67V84.3a9.593,9.593,0,0,0-3.823,0V80.283Zm5.475,7.323a9.608,9.608,0,0,0-3.564-2.7V80.283h3.792Zm-11.209-2.7a9.608,9.608,0,0,0-3.564,2.7l-.229-7.323h3.792Zm-3.171,15.26a9.6,9.6,0,0,0,3.171,2.253v6.534h-2.9Zm5.082,2.861a9.594,9.594,0,0,0,3.823,0v5.926H37.026Zm1.911-1.719a7.645,7.645,0,1,1,7.645-7.645A7.645,7.645,0,0,1,38.937,101.308ZM19.95,80.283H23.7l1.792,28.67H23.534Zm22.809,28.67v-6.534a9.6,9.6,0,0,0,3.171-2.253l-.275,8.787Zm11.58,0H52.378l1.792-28.67h3.754l-.239,1.911H56.139a.956.956,0,0,0-.927.724s-.976,3.93-.977,3.941-.007,3.936-.007,3.936a.956.956,0,0,0,.956.956h.091l.546,5.46a.964.964,0,0,0-.031.147Zm4.575,0-.612-6.124,10.774,1.9-.423,4.223ZM69.83,97.188,57.522,95.016,57.2,91.751H70.374Z" transform="translate(-16.001 -53.525)"/>
    </g>
  </g>
</svg>
